<svg width="113" height="35" viewBox="0 0 113 35" fill="none" xmlns="http://www.w3.org/2000/svg">
<g clip-path="url(#clip0)">
<path d="M12.7999 34.6408C17.1111 34.6408 20.6061 31.2771 20.6061 27.1277C20.6061 22.9783 17.1111 19.6145 12.7999 19.6145C8.48863 19.6145 4.99368 22.9783 4.99368 27.1277C4.99368 31.2771 8.48863 34.6408 12.7999 34.6408Z" fill="black"/>
<path d="M28.4082 34.6408C32.7194 34.6408 36.2144 31.2771 36.2144 27.1277C36.2144 22.9783 32.7194 19.6145 28.4082 19.6145C24.097 19.6145 20.602 22.9783 20.602 27.1277C20.602 31.2771 24.097 34.6408 28.4082 34.6408Z" fill="black"/>
<path d="M41.2283 15.68V17.5106H39.6096V-0.0162354H41.2283V8.52905H41.2769C41.7381 7.83763 42.3876 7.28125 43.1546 6.92048C43.895 6.56492 44.7106 6.37834 45.5381 6.37522C46.3593 6.36442 47.1744 6.51412 47.9338 6.81531C48.6222 7.09442 49.2445 7.50521 49.763 8.02273C50.2775 8.54296 50.678 9.15758 50.9405 9.82994C51.2192 10.547 51.3565 11.3078 51.3452 12.0734C51.3568 12.8402 51.2196 13.6023 50.9405 14.3207C50.677 14.9926 50.2767 15.607 49.763 16.1279C49.2454 16.6454 48.6228 17.0551 47.9338 17.3314C47.1749 17.6343 46.3595 17.7841 45.5381 17.7715C44.7122 17.7702 43.8974 17.5891 43.1546 17.2418C42.3911 16.8904 41.7419 16.345 41.2769 15.6644L41.2283 15.68ZM49.6294 12.0889C49.6324 11.5102 49.5353 10.935 49.3421 10.3869C49.1613 9.87542 48.8781 9.40302 48.5084 8.99644C48.1383 8.59608 47.6828 8.27723 47.173 8.06167C46.605 7.81975 45.9891 7.70013 45.3681 7.71115C44.7725 7.70554 44.1822 7.821 43.6361 8.05C43.1169 8.26396 42.6498 8.57965 42.2643 8.97697C41.8748 9.37984 41.5685 9.8504 41.3619 10.3635C41.1436 10.9143 41.0338 11.4995 41.0381 12.0889C41.0331 12.6785 41.1429 13.2638 41.3619 13.8144C41.5657 14.3265 41.8723 14.795 42.2643 15.1931C42.6525 15.5845 43.1192 15.8959 43.6361 16.1084C44.1826 16.3361 44.7728 16.4502 45.3681 16.4434C45.9876 16.4555 46.6027 16.3414 47.173 16.1084C47.6839 15.8984 48.1401 15.5818 48.5084 15.1815C48.878 14.7763 49.1613 14.3052 49.3421 13.7949C49.5342 13.2453 49.63 12.6688 49.6253 12.0889H49.6294Z" fill="black"/>
<path d="M65.1285 11.7664V12.113C65.1279 12.2432 65.1198 12.3732 65.1042 12.5025H55.7683C55.7778 13.0287 55.8918 13.5482 56.1042 14.0332C56.3041 14.5009 56.5984 14.9259 56.9702 15.2834C57.3432 15.6423 57.7842 15.9292 58.2692 16.1286C58.7802 16.3405 59.3317 16.4466 59.8879 16.4402C60.663 16.4603 61.4275 16.2641 62.0894 15.8754C62.6539 15.5452 63.1349 15.0981 63.4976 14.5668L64.7116 15.4937C64.1245 16.2414 63.3618 16.8447 62.4859 17.2542C61.6657 17.6098 60.7753 17.7905 59.8758 17.7839C59.0795 17.7928 58.2895 17.6471 57.553 17.3554C56.8595 17.0863 56.2322 16.6803 55.7117 16.1636C55.1909 15.6413 54.7789 15.0279 54.4976 14.3564C54.1958 13.635 54.0445 12.8634 54.0525 12.0857C54.0449 11.3104 54.1919 10.5409 54.4855 9.81893C54.763 9.14569 55.1756 8.53161 55.6995 8.01172C56.2127 7.50179 56.8262 7.09532 57.5044 6.816C58.212 6.52744 58.9737 6.38163 59.7422 6.38758C60.543 6.37311 61.3381 6.519 62.0772 6.816C62.7193 7.08417 63.2935 7.48275 63.7606 7.98445C64.2157 8.48092 64.5637 9.0595 64.7845 9.68652C65.018 10.3567 65.1342 11.0595 65.1285 11.7664ZM63.4693 11.2561C63.4525 10.3206 63.0894 9.42151 62.4454 8.72058C62.0962 8.37479 61.6735 8.10564 61.2063 7.93154C60.7391 7.75744 60.2383 7.6825 59.7382 7.71183C59.2168 7.70697 58.7 7.80645 58.2206 8.00395C57.7694 8.1891 57.3577 8.45323 57.0066 8.78292C56.6571 9.10862 56.3719 9.49263 56.1649 9.9163C55.9563 10.3339 55.8328 10.786 55.8007 11.2483L63.4693 11.2561Z" fill="black"/>
<path d="M75.5973 10.4966C75.6292 10.1149 75.5773 9.7311 75.4448 9.37007C75.3123 9.00903 75.1024 8.67889 74.8285 8.40116C74.2015 7.90453 73.4007 7.65786 72.5906 7.71179C71.9466 7.70566 71.3079 7.82488 70.713 8.06231C70.1646 8.27317 69.6651 8.58695 69.244 8.98539L68.3294 7.94547C68.8593 7.45906 69.4855 7.08024 70.1707 6.83155C70.9956 6.52761 71.8733 6.37823 72.7565 6.39143C73.3369 6.38699 73.9144 6.46978 74.4683 6.63681C74.9776 6.78893 75.4508 7.03645 75.8604 7.36514C76.2696 7.69708 76.5912 8.11748 76.7992 8.592C77.0368 9.142 77.1526 9.73363 77.1392 10.3291V15.0808C77.1392 15.4989 77.1554 15.9312 77.1878 16.3778C77.2102 16.7581 77.2574 17.1367 77.3294 17.5112H75.8604C75.8159 17.2503 75.7754 16.962 75.7431 16.6543C75.7112 16.3541 75.6949 16.0525 75.6945 15.7507H75.646C75.2093 16.4024 74.6095 16.9381 73.9018 17.3087C73.1686 17.6407 72.3646 17.8021 71.5546 17.78C71.1038 17.7771 70.6551 17.7195 70.2192 17.6086C69.7696 17.4946 69.3458 17.3018 68.9688 17.0399C68.5828 16.7676 68.2625 16.4182 68.0299 16.0156C67.7656 15.5451 67.6358 15.0156 67.6536 14.481C67.6128 13.7628 67.8491 13.0554 68.3172 12.4946C68.794 11.9846 69.405 11.6079 70.0857 11.4041C70.9092 11.1466 71.763 10.9896 72.6271 10.9367C73.5767 10.8666 74.5668 10.8315 75.5973 10.8315V10.4966ZM75.1158 12.0896C74.444 12.0896 73.7642 12.1168 73.0924 12.1714C72.4642 12.2158 71.8427 12.3255 71.239 12.4985C70.7365 12.6323 70.2718 12.8733 69.8793 13.2035C69.7025 13.3577 69.5631 13.5477 69.4715 13.7598C69.3798 13.9719 69.3381 14.2009 69.3492 14.4304C69.3379 14.7682 69.4159 15.1032 69.5758 15.4041C69.7233 15.6613 69.9346 15.8794 70.1909 16.039C70.4513 16.2043 70.7405 16.323 71.0447 16.3895C71.357 16.4563 71.6759 16.4902 71.9958 16.4908C72.5252 16.5014 73.0509 16.4032 73.5376 16.2025C73.9681 16.0246 74.3532 15.7588 74.6666 15.4236C74.9757 15.081 75.2135 14.6843 75.3668 14.2551C75.5268 13.8172 75.6075 13.3561 75.6054 12.8919V12.0779L75.1158 12.0896Z" fill="black"/>
<path d="M89.5304 17.5111C89.4981 17.219 89.4778 16.8958 89.4616 16.5374C89.4454 16.1791 89.4373 15.8909 89.4373 15.6572H89.3888C89.0472 16.3203 88.4999 16.8647 87.8226 17.2151C87.1274 17.6011 86.3388 17.8039 85.5362 17.8033C84.1077 17.8033 83.0394 17.3943 82.3231 16.5764C81.5746 15.6545 81.1954 14.5044 81.2547 13.3359V6.68738H82.8734V12.6854C82.8682 13.2081 82.9171 13.73 83.0192 14.2434C83.0989 14.6685 83.2668 15.0738 83.5129 15.4352C83.7475 15.7712 84.0718 16.0403 84.4517 16.2142C84.9157 16.4137 85.4209 16.5083 85.9288 16.4907C86.3646 16.4913 86.7959 16.4051 87.1954 16.2375C87.6148 16.0584 87.9879 15.7925 88.288 15.4586C88.6327 15.0718 88.894 14.623 89.0569 14.1382C89.2632 13.5287 89.3617 12.8901 89.3482 12.2492V6.69128H90.967V15.147C90.967 15.4404 90.9751 15.8182 90.9913 16.2804C91.0074 16.7426 91.0317 17.1593 91.0641 17.5306L89.5304 17.5111Z" fill="black"/>
<path d="M100.412 7.99218H97.2353V14.3135C97.2257 14.6495 97.2652 14.9852 97.3527 15.3106C97.4142 15.541 97.5354 15.7527 97.7048 15.926C97.8541 16.0692 98.0396 16.1726 98.243 16.2259C98.4635 16.2818 98.6908 16.3093 98.9189 16.3077C99.1581 16.3057 99.3961 16.2743 99.627 16.2142C99.8725 16.1527 100.111 16.0679 100.339 15.961L100.412 17.3281C100.119 17.4345 99.8174 17.5153 99.5097 17.5696C99.1716 17.626 98.8289 17.6534 98.4858 17.6514C98.1611 17.6493 97.8379 17.61 97.5227 17.5346C97.1803 17.4551 96.8599 17.3049 96.5839 17.0944C96.2789 16.858 96.035 16.5567 95.8716 16.2142C95.6704 15.7525 95.5765 15.254 95.5965 14.7536V7.99218H93.2615V6.67182H95.5965V3.61438H97.2353V6.67182H100.412V7.99218Z" fill="black"/>
<path d="M106.834 15.8091H106.883L110.375 6.66013H112.156L106.547 20.2921C106.267 21.0383 105.829 21.7202 105.26 22.294C104.957 22.5585 104.601 22.7614 104.215 22.8905C103.828 23.0197 103.418 23.0725 103.01 23.0457C102.517 23.0455 102.025 22.9999 101.541 22.9094L101.711 21.4722C102.102 21.5986 102.512 21.6618 102.925 21.6592C103.17 21.6716 103.415 21.6336 103.643 21.5476C103.871 21.4616 104.077 21.3297 104.248 21.1606C104.62 20.7412 104.906 20.2574 105.09 19.7351L106.005 17.4644L101.193 6.64844H103.022L106.834 15.8091Z" fill="black"/>
<path d="M4.21268 19.0653C4.21653 19.5562 4.17315 20.0465 4.08316 20.5297C4.01085 20.9345 3.84642 21.3189 3.60162 21.6554C3.36184 21.9785 3.03418 22.2319 2.65464 22.3876C2.16837 22.5781 1.64558 22.6671 1.12091 22.6485C0.737543 22.6475 0.357719 22.5788 4.57764e-05 22.446L0.210386 21.2503C0.491856 21.3624 0.792212 21.4245 1.0967 21.4334C1.41015 21.4468 1.72165 21.3796 1.99912 21.2386C2.21557 21.1238 2.39378 20.9523 2.51306 20.744C2.63735 20.5242 2.71694 20.2836 2.74771 20.0351C2.78916 19.7512 2.80951 19.4649 2.80847 19.1782V6.85106H4.21268V19.0653ZM2.45635 2.70694C2.45329 2.57327 2.47866 2.44041 2.53085 2.3165C2.58304 2.1926 2.66095 2.08028 2.75986 1.9864C2.8574 1.8912 2.97415 1.81619 3.10289 1.76596C3.23162 1.71573 3.36967 1.69133 3.50855 1.69429C3.64749 1.69087 3.7857 1.71504 3.91451 1.7653C4.04331 1.81555 4.15989 1.89083 4.25714 1.9864C4.35737 2.07952 4.43648 2.19163 4.48941 2.31565C4.54235 2.43967 4.56797 2.5729 4.5647 2.70694C4.56846 2.84104 4.54307 2.97442 4.4901 3.09851C4.43714 3.2226 4.35777 3.33467 4.25714 3.4275C4.16069 3.52435 4.04433 3.60072 3.9154 3.65169C3.78647 3.70267 3.64788 3.72711 3.50855 3.72349C3.36928 3.72663 3.23085 3.70198 3.102 3.65103C2.97314 3.60008 2.85661 3.52397 2.75986 3.4275C2.66056 3.3339 2.58237 3.2216 2.53016 3.09763C2.47794 2.97366 2.4528 2.84066 2.45635 2.70694Z" fill="black"/>
<path d="M15.576 8.79844C15.2237 8.48187 14.8116 8.2333 14.362 8.06621C13.8978 7.88605 13.4015 7.79476 12.9011 7.79746C12.2329 7.7727 11.5711 7.92928 10.991 8.24928C10.5199 8.515 10.1075 8.86696 9.77697 9.2853C9.50578 9.63013 9.29271 10.0139 9.14565 10.4226C9.04926 10.6655 8.98668 10.9195 8.95952 11.1782H16.6484C16.6519 10.7267 16.5525 10.28 16.357 9.86952C16.1688 9.46848 15.9039 9.10512 15.576 8.79844Z" fill="black"/>
<path d="M12.7999 4.59204C11.7749 4.59204 10.7601 4.78641 9.81323 5.16403C8.86636 5.54164 8.00608 6.09512 7.28153 6.79283C6.55699 7.49054 5.98237 8.3188 5.59051 9.23032C5.19866 10.1418 4.9972 11.1187 4.99773 12.1052C4.99773 14.0968 5.81973 16.0068 7.28292 17.4151C8.7461 18.8233 10.7306 19.6145 12.7999 19.6145C13.8248 19.615 14.8398 19.4211 15.7868 19.044C16.7339 18.6668 17.5945 18.1138 18.3194 17.4164C19.0443 16.7191 19.6195 15.8911 20.0118 14.9797C20.4042 14.0684 20.6061 13.0916 20.6061 12.1052C20.6066 11.1184 20.405 10.1412 20.0129 9.22944C19.6208 8.31767 19.0459 7.48921 18.3209 6.79145C17.5959 6.09369 16.7351 5.5403 15.7878 5.16291C14.8405 4.78552 13.8252 4.59153 12.7999 4.59204ZM18.0607 12.3817H8.97572C8.99092 12.7509 9.05204 13.1171 9.1578 13.4723C9.28729 13.9379 9.5055 14.3764 9.80127 14.7654C10.1377 15.2054 10.5647 15.574 11.0557 15.8481C11.6755 16.1716 12.3746 16.3277 13.0791 16.2999C13.8053 16.2976 14.5203 16.1266 15.1632 15.8014C15.8019 15.5021 16.3382 15.0331 16.709 14.4499L17.7409 15.2834C17.2534 16.0314 16.5504 16.6268 15.7176 16.9971C14.8812 17.3499 13.976 17.5266 13.0629 17.5151C12.2935 17.5301 11.5287 17.3977 10.813 17.1256C10.1604 16.8654 9.57071 16.4782 9.08094 15.9884C8.59133 15.488 8.21269 14.897 7.96808 14.2512C7.70425 13.539 7.5741 12.7873 7.58366 12.0312C7.57934 11.2928 7.71653 10.56 7.98833 9.86955C8.2402 9.2292 8.62263 8.64386 9.11324 8.14804C9.59582 7.65775 10.1769 7.26686 10.8211 6.99905C11.5079 6.71271 12.2498 6.56935 12.9982 6.5784C13.7511 6.56342 14.4982 6.70699 15.1874 6.99905C15.7921 7.25691 16.335 7.63217 16.7819 8.1013C17.2078 8.55495 17.5376 9.08413 17.7531 9.65924C17.9689 10.2297 18.0798 10.8321 18.0809 11.4392L18.0607 12.3817Z" fill="black"/>
<path d="M28.4082 4.59205C27.5662 4.59123 26.7296 4.72279 25.9316 4.98153H26.4982V6.19672H23.5925C23.3308 6.39032 23.0835 6.60114 22.8521 6.82768H26.4941V8.04287H23.4064V14.8277C23.394 15.0246 23.4236 15.2218 23.4932 15.4073C23.5627 15.5928 23.6709 15.7627 23.8111 15.9066C23.9572 16.0404 24.1303 16.144 24.3196 16.2109C24.5089 16.2779 24.7104 16.3069 24.9118 16.296C25.1849 16.2948 25.4568 16.2608 25.7211 16.1948C25.9894 16.1272 26.2519 16.0399 26.5063 15.9338L26.6236 17.149C26.3259 17.2508 26.0218 17.3341 25.713 17.3983C25.4133 17.4675 25.1067 17.5054 24.7985 17.5112C24.359 17.5227 23.9216 17.4499 23.5116 17.297C23.1813 17.1723 22.8851 16.9765 22.6457 16.7245C22.4239 16.4793 22.2596 16.191 22.164 15.8793C22.0611 15.539 22.0107 15.186 22.0143 14.8316V8.04677H21.8525C21.042 9.25665 20.6106 10.6656 20.6101 12.1052C20.6112 14.0971 21.4341 16.0071 22.8979 17.4153C24.3617 18.8234 26.3467 19.6145 28.4163 19.6145C30.4856 19.6145 32.47 18.8233 33.9332 17.4151C35.3964 16.0068 36.2185 14.0968 36.2185 12.1052C36.219 11.1181 36.0173 10.1406 35.6249 9.22854C35.2326 8.31651 34.6572 7.48789 33.9318 6.79007C33.2064 6.09226 32.3452 5.53896 31.3974 5.16179C30.4496 4.78463 29.4339 4.59102 28.4082 4.59205ZM30.379 17.3243C30.2744 17.4292 30.1488 17.5123 30.0096 17.5686C29.8703 17.6248 29.7206 17.653 29.5696 17.6514C29.4186 17.653 29.269 17.6248 29.1298 17.5686C28.9906 17.5123 28.8648 17.4292 28.7603 17.3243C28.6516 17.2236 28.5658 17.1025 28.508 16.9685C28.4502 16.8345 28.4218 16.6904 28.4244 16.5453C28.4225 16.4003 28.4513 16.2565 28.509 16.1225C28.5668 15.9886 28.6522 15.8674 28.7603 15.7664C28.8656 15.6627 28.9916 15.5807 29.1306 15.5251C29.2697 15.4696 29.419 15.4417 29.5696 15.4431C29.7202 15.4417 29.8696 15.4696 30.0087 15.5251C30.1478 15.5807 30.2737 15.6627 30.379 15.7664C30.4875 15.8672 30.5736 15.9883 30.6321 16.1222C30.6905 16.2561 30.7201 16.4001 30.7189 16.5453C30.7208 16.6907 30.6916 16.8348 30.6332 16.9688C30.5747 17.1028 30.4881 17.2238 30.379 17.3243Z" fill="black"/>
<path d="M26.2958 5.18009V6.0058H19.8655V5.18009H26.2958ZM26.4982 4.98535H19.6794V6.20054H26.5143V4.98535H26.4982Z" fill="black"/>
<path d="M26.2958 7.02628V7.85198H23.2081V14.8315C23.1954 15.0539 23.2294 15.2764 23.308 15.4858C23.3866 15.6953 23.5081 15.8874 23.6654 16.0506C23.8307 16.2012 24.0261 16.3178 24.2397 16.3935C24.4532 16.4691 24.6805 16.5022 24.9077 16.4907C25.1973 16.4885 25.4855 16.4518 25.7657 16.3817C25.9559 16.3349 26.142 16.2765 26.3241 16.2142L26.4011 17.0165C26.1785 17.0828 25.9316 17.149 25.6564 17.2074C25.373 17.2752 25.0824 17.3118 24.7904 17.3164C24.3761 17.3271 23.9637 17.2596 23.5763 17.1178C23.2689 17.0052 22.9922 16.8267 22.767 16.5959C22.5648 16.3695 22.4158 16.1038 22.33 15.8169C22.2315 15.4959 22.1837 15.1624 22.1883 14.8276V7.84808H19.8452V7.02238H26.2756L26.2958 7.02628ZM26.4779 6.82764H19.6794V8.04283H22.0224V14.8276C22.0188 15.182 22.0692 15.535 22.1721 15.8754C22.2677 16.1871 22.432 16.4754 22.6538 16.7205C22.8932 16.9725 23.1894 17.1684 23.5197 17.2931C23.9297 17.4459 24.3671 17.5187 24.8066 17.5073C25.1147 17.5014 25.4214 17.4635 25.7211 17.3944C26.0299 17.3301 26.334 17.2469 26.6316 17.1451L26.5143 15.9299C26.2599 16.036 25.9974 16.1232 25.7292 16.1908C25.4649 16.2568 25.193 16.2908 24.9199 16.2921C24.7185 16.303 24.517 16.274 24.3277 16.207C24.1384 16.14 23.9653 16.0364 23.8192 15.9026C23.679 15.7588 23.5708 15.5889 23.5012 15.4034C23.4317 15.2179 23.4021 15.0206 23.4145 14.8237V8.03893H26.5022V6.851L26.4779 6.82764Z" fill="black"/>
</g>
<defs>
<clipPath id="clip0">
<rect width="112.156" height="34.6407" fill="white"/>
</clipPath>
</defs>
</svg>
