<svg width="18" height="16" viewBox="0 0 18 16" fill="none" xmlns="http://www.w3.org/2000/svg">
<path d="M4.49427 2.28943C4.51851 1.76999 4.65151 1.31425 4.95279 0.919691C5.4024 0.331107 5.99284 0.0107522 6.7284 0.00713238C8.24183 -0.000831237 9.75538 -0.000831237 11.2691 0.00713238C12.41 0.014372 13.3324 0.861412 13.4797 2.00998C13.49 2.09324 13.4996 2.17686 13.5121 2.28038C13.5741 2.28328 13.6362 2.28871 13.6986 2.28907C14.3931 2.28907 15.0891 2.28075 15.7819 2.29378C17.0298 2.31731 17.995 3.30733 17.9971 4.57427C18.0026 7.61758 18.0026 10.6608 17.9971 13.7038C17.995 14.9921 17.0045 15.9952 15.7327 15.9963C11.2452 16.0004 6.75776 16.0004 2.27047 15.9963C0.991891 15.9963 0.00532101 14.9863 0.00389482 13.6875C0.000329332 10.6563 0.000329332 7.62506 0.00389482 4.59382C0.00389482 3.3019 0.961942 2.3155 2.23553 2.29233C2.91797 2.28002 3.60076 2.28907 4.28319 2.28835L4.49427 2.28943ZM9.0367 5.50167C8.58458 5.50076 8.13673 5.59051 7.71886 5.76576C7.30099 5.941 6.92132 6.1983 6.60164 6.52289C6.28196 6.84748 6.02856 7.23296 5.85599 7.65722C5.68342 8.08147 5.59507 8.53615 5.596 8.99516C5.59703 9.91914 5.95834 10.8051 6.60095 11.4594C7.24356 12.1137 8.11519 12.4831 9.02529 12.4868C9.4775 12.488 9.92551 12.3987 10.3437 12.224C10.7619 12.0492 11.142 11.7925 11.4624 11.4685C11.7827 11.1444 12.037 10.7594 12.2107 10.3356C12.3844 9.91166 12.474 9.45716 12.4745 8.99806C12.4759 8.53905 12.3879 8.0843 12.2156 7.65989C12.0434 7.23549 11.7903 6.84979 11.4709 6.52494C11.1515 6.20008 10.772 5.94246 10.3543 5.76686C9.93659 5.59127 9.48882 5.50114 9.0367 5.50167Z" fill="#B6B5B5"/>
</svg>
