<?xml version="1.0" encoding="UTF-8"?>
<svg fill="none" viewBox="0 0 9 8" xmlns="http://www.w3.org/2000/svg">
<path d="m8.6462 1.5742c0.0047-0.19662-0.06094-0.38848-0.18509-0.54102-0.08543-0.079067-0.18122-0.14612-0.28475-0.19932-0.10506-0.07173-0.22874-0.11131-0.35593-0.1139h-5.8373c-0.19534 0.006603-0.38199 0.082289-0.52678 0.21357-0.09747 0.084542-0.17489 0.18973-0.2266 0.30794-0.05172 0.11821-0.07645 0.24648-0.07239 0.37544v2.8475c0 0.07119 0 0.09966-0.08542 0.08542h-0.28474c-0.061518-0.00659-0.12357-0.00659-0.18509 0-0.10367 0.03417-0.19325 0.10143-0.25498 0.19146-0.061732 0.09002-0.092188 0.19784-0.086702 0.30685v2.1925 0.19932c0.027065 0.09678 0.081974 0.18347 0.15791 0.24928 0.075941 0.06582 0.16954 0.10787 0.26919 0.1209h4.3993c0.11265-0.03405 0.21112-0.10391 0.28049-0.19897s0.10584-0.21016 0.10391-0.32782v-0.68339h2.2637c0.11337 0.00189 0.22599-0.01881 0.33128-0.06089s0.20114-0.10471 0.28198-0.18422c0.08084-0.07952 0.14503-0.17432 0.18885-0.2789s0.06638-0.21684 0.06637-0.33023c0.05695-1.3668 0.05694-2.762 0.04271-4.1715zm-8.0156 4.2712c0.007186-0.06149 0.007186-0.12361 0-0.18509h4.4705v0.3417h-4.3139c-0.14237-0.05695-0.17085-0.07119-0.15661-0.15661zm4.5275 1.4237c0 0.15661-2e-5 0.21355-0.21358 0.21355h-4.1573c-0.025476 0.00196-0.051084-0.00136-0.07521-0.00978-0.024125-0.00842-0.046253-0.02174-0.064977-0.03912-0.018724-0.01739-0.033639-0.03846-0.043818-0.0619-0.010179-0.02343-0.015392-0.04872-0.015316-0.07427v-0.99663h4.5132v0.99663l0.05697-0.02848zm0-2.0502h-4.5132c-0.007067-0.06625-0.007067-0.13306 0-0.19932 0.001625-0.02198 0.007876-0.04336 0.018335-0.06276s0.024893-0.03637 0.042363-0.04981 0.03759-0.02305 0.059025-0.02818c0.021434-0.00513 0.043706-0.0057 0.065368-0.00163h4.1431c0.12814 0 0.1851 1e-5 0.1851 0.18509 0.01009 0.06129 0.01009 0.12381 0 0.1851v-0.02849zm3.1464 0.49832c-0.01807 0.11959-0.0566 0.23516-0.1139 0.34168-0.06307 0.09413-0.15992 0.16041-0.27051 0.18509h-2.3918v-0.09967-1.1105c0.00789-0.12991-0.03535-0.25775-0.12049-0.35619-0.08513-0.09844-0.20542-0.15966-0.33512-0.17058h-3.4739s-0.08544 0-0.08544-0.07119v-2.8475c-0.01151-0.10983 0.01278-0.22043 0.06922-0.31535s0.14201-0.16908 0.244-0.21142c0.06563-0.01471 0.1337-0.01471 0.19933 0h5.6949c0.0791-0.02255 0.16293-0.02255 0.24203 0 0 0 0.18509 0.08542 0.19932 0.19932 0.08543 0 0.07119 0.18508 0.07119 0.28474v0.9539s0 0.07119-0.07119 0.07119h-0.79728c-0.23836-0.00607-0.47156 0.07-0.66049 0.21546s-0.32208 0.35146-0.37715 0.58345c-0.05508 0.23199-0.02872 0.47587 0.07466 0.69073 0.10339 0.21486 0.2775 0.38762 0.49314 0.48934 0.16061 0.07458 0.33547 0.11344 0.51255 0.1139h0.75457s0.07119 1e-5 0.07119 0.07119l0.07119 0.98238zm0-1.4237h-0.83999c-0.1888 0-0.36988-0.07501-0.50338-0.20851s-0.20849-0.31456-0.20849-0.50336c0-0.18879 0.07499-0.36987 0.20849-0.50337s0.31458-0.20849 0.50338-0.20849h0.86847l-0.02848 1.4237z" fill="#000"/>
</svg>
