<svg width="9" height="9" viewBox="0 0 9 9" fill="none" xmlns="http://www.w3.org/2000/svg">
<path d="M6.98034 8.75932C6.76131 8.75113 6.54501 8.70785 6.33967 8.63117C5.84568 8.4696 5.3688 8.25977 4.91594 8.00472C4.51007 7.78006 4.12 7.52795 3.74847 7.25015C3.26177 6.89399 2.809 6.49365 2.39593 6.05422C1.96798 5.58091 1.58211 5.07119 1.24272 4.53084C1.00047 4.15063 0.790897 3.75053 0.616271 3.33489C0.535909 3.14403 0.483174 2.94268 0.45966 2.73693C0.438753 2.54755 0.468217 2.35601 0.545081 2.18168C0.701289 1.84634 0.929811 1.54975 1.21423 1.3132C1.37085 1.1993 1.52746 1.07118 1.68407 0.971522L2.01152 0.82914C2.08232 0.794014 2.16029 0.775742 2.23932 0.775742C2.31836 0.775742 2.39632 0.794014 2.46712 0.82914C2.71405 0.97228 2.92761 1.16642 3.09357 1.39862C3.34711 1.74685 3.56642 2.11874 3.74847 2.50913V2.65151C3.76389 2.70881 3.76412 2.76915 3.74914 2.82657C3.73417 2.88398 3.7045 2.9365 3.66305 2.97896C3.57221 3.05776 3.47176 3.12474 3.36408 3.17828C3.15431 3.29968 2.93533 3.40441 2.70915 3.49151C2.59105 3.54719 2.49953 3.64701 2.45426 3.76949C2.409 3.89197 2.41362 4.02732 2.46712 4.14643C2.62755 4.47731 2.83362 4.78403 3.07932 5.05762C3.36754 5.38611 3.68178 5.69082 4.01898 5.9688C4.29844 6.18912 4.59344 6.38896 4.90169 6.56676L5.11526 6.6949C5.20953 6.77241 5.32779 6.81479 5.44984 6.81479C5.57188 6.81479 5.69015 6.77241 5.78441 6.6949C5.87595 6.60278 5.95276 6.49714 6.0122 6.38167C6.11186 6.18235 6.22577 5.98303 6.33967 5.78371C6.39673 5.67544 6.49378 5.59373 6.61018 5.55593C6.71529 5.51394 6.83252 5.51394 6.93763 5.55593C7.21668 5.69977 7.48334 5.86643 7.73492 6.05422C7.99945 6.24171 8.25151 6.44622 8.48949 6.66644L8.66033 6.86576C8.70557 6.92044 8.73696 6.98521 8.75183 7.05461C8.76671 7.124 8.76464 7.19598 8.74577 7.2644C8.70256 7.45618 8.60921 7.63305 8.47526 7.77694C8.2096 8.11459 7.87461 8.39131 7.49289 8.58846C7.33451 8.6776 7.16053 8.73561 6.98034 8.75932Z" fill="black"/>
</svg>
