<svg width="9" height="8" viewBox="0 0 9 8" fill="none" xmlns="http://www.w3.org/2000/svg">
<path d="M8.03475 7.35722C8.01982 7.44059 7.97746 7.51682 7.9142 7.57417C7.86412 7.6202 7.80112 7.65031 7.7334 7.66058C7.66568 7.67085 7.59639 7.66079 7.53456 7.63173C7.47225 7.60809 7.41869 7.5664 7.38095 7.51218C7.3432 7.45795 7.32305 7.39374 7.32315 7.328C7.3121 6.81152 7.10511 6.31779 6.7429 5.94394C6.40451 5.59178 5.98117 5.32952 5.51223 5.18152C5.28559 5.10572 5.05119 5.05464 4.81322 5.0292C4.02678 4.95088 3.23852 5.15983 2.59838 5.6163C2.22675 5.87247 1.93738 6.22798 1.76444 6.64084C1.67691 6.85932 1.62968 7.09142 1.625 7.32623C1.62095 7.40973 1.58704 7.48913 1.52925 7.55039C1.47146 7.61164 1.39353 7.65081 1.30923 7.66096C1.21993 7.67198 1.12977 7.64853 1.05764 7.59554C0.985522 7.54254 0.937043 7.46411 0.922394 7.3767C0.913401 7.29281 0.913401 7.20822 0.922394 7.12433C0.941311 6.89698 0.990616 6.67308 1.06903 6.45842C1.19571 6.11358 1.38979 5.79651 1.6403 5.5251C2.09935 5.03201 2.68623 4.67138 3.33787 4.48196L3.37205 4.47045H3.37925C2.74412 4.06754 2.37887 3.5017 2.33929 2.75432C2.3204 2.46831 2.36349 2.18161 2.4657 1.91323C2.5679 1.64484 2.7269 1.4009 2.93214 1.19758C3.12953 0.994893 3.36624 0.833271 3.62825 0.72229C3.89027 0.611309 4.17225 0.553234 4.45749 0.5515C4.74272 0.549766 5.02541 0.604407 5.28879 0.712194C5.55218 0.819981 5.79091 0.978716 5.99083 1.17899C6.22307 1.40316 6.39817 1.67821 6.50182 1.98169C6.60548 2.28517 6.63476 2.60848 6.58727 2.92522C6.49731 3.59644 6.14376 4.10384 5.5698 4.46513C5.70385 4.51295 5.83968 4.55368 5.97193 4.61036C6.42219 4.7868 6.8316 5.05095 7.17561 5.38695C7.50402 5.70313 7.75079 6.09208 7.8953 6.5213C7.96743 6.73678 8.01039 6.96067 8.02305 7.1872C8.0245 7.19859 8.0269 7.20985 8.03024 7.22085L8.03475 7.35722ZM4.47228 1.24718C4.19277 1.2474 3.91948 1.32849 3.6864 1.48035C3.45332 1.63221 3.27074 1.84815 3.16133 2.10133C3.05192 2.35451 3.02051 2.63376 3.07102 2.90436C3.12154 3.17496 3.25174 3.42498 3.44543 3.62334C3.63913 3.8217 3.88778 3.95964 4.16048 4.02003C4.43317 4.08042 4.71789 4.06058 4.97922 3.96299C5.24056 3.86539 5.467 3.69435 5.63038 3.47111C5.79376 3.24788 5.88688 2.9823 5.89816 2.70739C5.90631 2.51819 5.8754 2.32933 5.80731 2.15222C5.73922 1.97512 5.63536 1.81344 5.502 1.67695C5.36864 1.54047 5.20856 1.43202 5.03142 1.35815C4.85428 1.28428 4.66376 1.24653 4.47138 1.24718H4.47228Z" fill="black"/>
</svg>
