<svg width="7" height="11" viewBox="0 0 7 11" fill="none" xmlns="http://www.w3.org/2000/svg">
<path d="M3.20404 6.96067C3.20404 5.02439 5.41081 4.7966 5.41081 3.07389C5.43307 2.85709 5.40526 2.63806 5.32952 2.4337C5.25377 2.22934 5.13212 2.0451 4.97394 1.89517C4.81576 1.74524 4.62527 1.63363 4.41715 1.56894C4.20903 1.50424 3.98882 1.4882 3.77352 1.52203C2.6203 1.52203 2.02234 2.2766 1.96539 3.44405H0.997252C0.96478 3.06193 1.01614 2.67731 1.14776 2.3171C1.27937 1.95689 1.48807 1.62978 1.75925 1.3586C2.03042 1.08742 2.35755 0.878718 2.71776 0.747103C3.07797 0.615488 3.46258 0.564124 3.84471 0.596596C4.18115 0.566305 4.52019 0.607619 4.8395 0.717818C5.15882 0.828018 5.45117 1.0046 5.69731 1.23594C5.94345 1.46729 6.1378 1.74816 6.26755 2.06004C6.39731 2.37192 6.45954 2.70775 6.45014 3.04541C6.45014 5.16677 4.22912 5.35185 4.22912 7.00338V7.50169H3.26099L3.20404 6.96067ZM3.11861 8.91117H4.27183V10.0929H3.11861V8.91117Z" fill="black"/>
</svg>
