<svg width="32" height="36" viewBox="0 0 32 36" fill="none" xmlns="http://www.w3.org/2000/svg">
<g clip-path="url(#clip0)">
<rect width="31.15" height="35.46" fill="white"/>
<path d="M18.35 23.59C17.5578 24.035 16.6765 24.298 15.77 24.36C14.8652 24.3062 13.9853 24.0426 13.2 23.59L13.65 22.99C13.8231 22.7498 14.0683 22.5711 14.35 22.48C14.4463 22.4691 14.5437 22.4691 14.64 22.48C15.2 22.48 15.33 22.66 15.79 22.67C16.25 22.68 16.3699 22.45 16.9299 22.5C17.0524 22.5138 17.1732 22.5407 17.29 22.5801C17.5252 22.6812 17.7313 22.8392 17.89 23.04L18.35 23.59Z" stroke="#898989" stroke-width="0.75" stroke-linecap="round" stroke-linejoin="round"/>
<path d="M14.04 25.51L14.47 25.84C14.6846 25.9496 14.9195 26.0143 15.16 26.03H16.28H16.5599C16.7895 25.9908 17.0099 25.9094 17.21 25.79L17.47 25.5801" stroke="#898989" stroke-width="0.75" stroke-linecap="round" stroke-linejoin="round"/>
<path d="M17.25 19.15C17.25 19.32 17.09 19.3501 16.6 19.6901C16.322 19.8566 16.004 19.9446 15.6799 19.9446C15.3559 19.9446 15.038 19.8566 14.76 19.6901C14.26 19.3501 14.14 19.32 14.1 19.15" stroke="#898989" stroke-width="0.75" stroke-linecap="round" stroke-linejoin="round"/>
<path d="M7.30994 14.01C7.52395 13.8492 7.7825 13.7584 8.05005 13.75C8.3397 13.7461 8.62191 13.8414 8.84998 14.02C9.21775 14.3371 9.65702 14.5602 10.13 14.67C10.458 14.7433 10.7956 14.7634 11.13 14.73C11.5824 14.6651 12.0276 14.558 12.46 14.41L13.23 14.1901" stroke="#898989" stroke-width="0.75" stroke-linecap="round" stroke-linejoin="round"/>
<path d="M8.92993 15.24C9.01926 15.0622 9.15253 14.9101 9.31702 14.7981C9.4815 14.6861 9.67182 14.6179 9.87 14.6" stroke="#898989" stroke-width="0.75" stroke-linecap="round" stroke-linejoin="round"/>
<path d="M23.97 14.01C23.7501 13.8381 23.479 13.7448 23.2 13.7448C22.9209 13.7448 22.6498 13.8381 22.4299 14.01C22.0638 14.3295 21.624 14.5529 21.15 14.66C20.822 14.7333 20.4844 14.7534 20.15 14.72C19.6979 14.6539 19.2526 14.5469 18.8199 14.4L18.0599 14.1801" stroke="#898989" stroke-width="0.75" stroke-linecap="round" stroke-linejoin="round"/>
<path d="M21.41 14.6C21.6094 14.6181 21.801 14.6863 21.967 14.7982C22.1331 14.9101 22.2683 15.062 22.36 15.24" stroke="#898989" stroke-width="0.75" stroke-linecap="round" stroke-linejoin="round"/>
<path d="M5.67993 20.8101C4.98353 18.2014 4.64709 15.5098 4.67993 12.8101C5.06202 11.7116 5.53712 10.6477 6.09997 9.63C7.22915 7.41079 8.83401 5.46803 10.8 3.94006C11.7821 3.20916 12.8459 2.59495 13.97 2.10999" stroke="#898989" stroke-width="0.75" stroke-linecap="round" stroke-linejoin="round"/>
<path d="M25.72 20.74C26.3638 18.1476 26.6564 15.4804 26.59 12.8101C26.44 12.4601 26.2199 11.95 25.9299 11.34C24.84 8.82276 23.2537 6.55129 21.2657 4.66125C19.2778 2.77122 16.929 1.30144 14.36 0.339966" stroke="#898989" stroke-width="0.75" stroke-linecap="round" stroke-linejoin="round"/>
<path d="M13.2 11.13C12.6731 10.5699 11.9642 10.2154 11.2 10.13C10.1852 9.98353 9.15476 9.98353 8.14001 10.13" stroke="#898989" stroke-width="0.75" stroke-linecap="round" stroke-linejoin="round"/>
<path d="M17.36 11.12C17.8895 10.5634 18.597 10.2096 19.36 10.12C20.3714 9.97367 21.3986 9.97367 22.41 10.12" stroke="#898989" stroke-width="0.75" stroke-linecap="round" stroke-linejoin="round"/>
<path d="M13.2 33.84C13.7824 33.1023 14.0485 32.1637 13.9399 31.23C13.7699 30.23 13.01 29.4601 11.51 28.0601C11.51 28.0601 9.82997 26.4901 9.21997 25.8001L8.94995 25.5001L8.32996 24.7901C7.72745 24.035 7.02815 23.3625 6.25 22.7901C5.94067 22.5427 5.55181 22.4163 5.15613 22.4347C4.76045 22.4531 4.38501 22.615 4.09998 22.8901L6.52002 26.5101C6.84002 27.2301 7.16002 27.9401 7.52002 28.6501" stroke="#898989" stroke-width="0.75" stroke-linecap="round" stroke-linejoin="round"/>
<path d="M8.66005 35.09L7.72999 33.62C5.45519 31.0217 3.3285 28.2975 1.36 25.4601C0.931225 24.958 0.666048 24.3369 0.599989 23.68C0.44624 22.3524 0.37614 21.0165 0.390028 19.68L1.47999 13.68C1.47999 13.54 1.63995 13.56 1.80995 13.68C2.1672 13.8523 2.45104 14.1466 2.61 14.51C2.70875 15.2459 2.6577 15.9943 2.45997 16.7101V19.63L2.71998 20.42L3.25001 21.63" stroke="#898989" stroke-width="0.75" stroke-linecap="round" stroke-linejoin="round"/>
<path d="M17.9399 33.84C17.3623 33.0998 17.0968 32.1632 17.1999 31.23C17.3699 30.23 18.1299 29.4601 19.6299 28.0601C19.6299 28.0601 21.32 26.4901 21.92 25.8001L22.1899 25.5L22.8099 24.7901C23.4124 24.035 24.1118 23.3625 24.89 22.7901C25.2009 22.542 25.5913 22.4152 25.9887 22.4336C26.3861 22.452 26.7633 22.6143 27.05 22.8901L24.6199 26.5101L23.6199 28.6501" stroke="#898989" stroke-width="0.75" stroke-linecap="round" stroke-linejoin="round"/>
<path d="M22.49 35.09L23.41 33.62C25.6853 31.0195 27.8153 28.2955 29.79 25.4601C30.2197 24.9596 30.4819 24.3371 30.54 23.68C30.6988 22.3529 30.7689 21.0166 30.75 19.68L29.66 13.68C29.66 13.54 29.5 13.56 29.33 13.68C28.9727 13.8523 28.689 14.1466 28.53 14.51C28.4313 15.2459 28.4822 15.9943 28.6799 16.7101V19.63L28.42 20.42L27.89 21.63" stroke="#898989" stroke-width="0.75" stroke-linecap="round" stroke-linejoin="round"/>
<path d="M13.97 30.8101C14.5199 31.1131 15.1428 31.2584 15.77 31.23C16.2892 31.2063 16.7958 31.0626 17.25 30.8101" stroke="#898989" stroke-width="0.75" stroke-linecap="round" stroke-linejoin="round"/>
<path d="M4.66003 12.84C4.66003 12.84 2.56002 9.96 2.40002 8.37" stroke="#898989" stroke-width="0.75" stroke-linecap="round" stroke-linejoin="round"/>
<path d="M26.63 12.84C26.63 12.84 28.73 9.96 28.89 8.37" stroke="#898989" stroke-width="0.75" stroke-linecap="round" stroke-linejoin="round"/>
</g>
<defs>
<clipPath id="clip0">
<rect width="31.15" height="35.46" fill="white"/>
</clipPath>
</defs>
</svg>
