<svg width="40" height="20" viewBox="0 0 40 20" fill="none" xmlns="http://www.w3.org/2000/svg">
<g clip-path="url(#clip0)">
<rect width="40" height="20" transform="matrix(-1 0 0 1 40 0)" fill="white"/>
<path d="M38.3936 10.0105C36.9194 11.4304 35.3259 12.7275 33.6298 13.8883C31.0418 15.7113 28.1575 17.0964 25.0978 17.9854C21.6374 18.9588 17.9604 18.9225 14.521 17.881C11.3516 16.906 8.37836 15.4052 5.73205 13.4447C5.03086 12.9228 4.35644 12.4009 3.66595 11.879C3.599 11.813 3.51848 11.7616 3.42969 11.7282C3.3409 11.6947 3.24584 11.68 3.15079 11.6849C3.05574 11.6898 2.96284 11.7143 2.87819 11.7568C2.79354 11.7992 2.71907 11.8586 2.65966 11.9311C2.60314 12.0022 2.56228 12.0838 2.53967 12.171C2.51706 12.2582 2.51319 12.349 2.52827 12.4377C2.54334 12.5264 2.57704 12.6111 2.62729 12.6865C2.67754 12.7619 2.74323 12.8264 2.82024 12.8758C5.9648 15.5521 9.60845 17.613 13.5522 18.9458C15.8109 19.6902 18.1859 20.0435 20.5695 19.9896C23.228 19.8967 25.8455 19.3214 28.2879 18.2934C32.5628 16.5138 36.4231 13.9073 39.6355 10.6316C40.1279 10.1096 40.1225 9.85909 39.6355 9.36849C36.702 6.38307 33.2336 3.9457 29.4013 2.17647C26.7496 0.864806 23.8385 0.127419 20.8674 0.0148156C17.8963 -0.0977879 14.9354 0.417053 12.1873 1.52407C7.7415 3.29788 3.72905 5.96546 0.411564 9.35288L0.304504 9.46246C-0.0434151 9.8278 -0.0701637 10.1879 0.21888 10.4697C0.507919 10.7516 0.914715 10.715 1.2894 10.3549C3.38269 8.26163 5.7386 6.43442 8.30129 4.91655C11.0345 3.23268 14.0779 2.0839 17.2615 1.53445C20.1695 1.10467 23.1406 1.35879 25.9274 2.2756C28.9382 3.23659 31.7599 4.68902 34.2721 6.571C35.6156 7.56265 36.8628 8.65867 38.1528 9.7547C38.2063 9.80689 38.2812 9.9009 38.3936 10.0105Z" fill="#898989"/>
<path d="M19.9438 2.88104C18.3429 2.88883 16.789 3.4087 15.5204 4.36086C14.2518 5.31302 13.3388 6.64484 12.9215 8.15186C12.5041 9.65887 12.6056 11.2578 13.2102 12.7032C13.8149 14.1485 14.8893 15.3605 16.2686 16.1529C17.6478 16.9453 19.2557 17.2744 20.8454 17.0897C22.435 16.9051 23.9185 16.2167 25.0682 15.1305C26.2179 14.0443 26.9703 12.6201 27.2097 11.0767C27.4491 9.53327 27.1625 7.95588 26.3937 6.58667C26.0993 6.06475 25.7514 5.86642 25.3606 6.06475C24.9699 6.26308 24.9164 6.65975 25.2054 7.18689C25.6801 8.0244 25.9354 8.96317 25.9488 9.91996C25.9621 10.8768 25.733 11.822 25.2819 12.6718C24.8308 13.5216 24.1716 14.2496 23.3627 14.7914C22.5538 15.3332 21.6203 15.672 20.645 15.7777C19.5567 15.9329 18.4457 15.7733 17.4495 15.3187C16.4533 14.8641 15.6159 14.1345 15.0408 13.2203C14.4782 12.406 14.1371 11.4656 14.0499 10.4874C13.9626 9.50929 14.132 8.52559 14.5421 7.62885C14.9521 6.73211 15.5894 5.95182 16.3939 5.36138C17.1984 4.77093 18.1437 4.38977 19.1409 4.2537C20.2675 4.07249 21.424 4.2328 22.4542 4.71299C22.6094 4.78084 22.7593 4.85391 22.9199 4.9061C23.0769 4.97136 23.254 4.97404 23.4131 4.91355C23.5721 4.85307 23.7006 4.73423 23.7709 4.58251C23.8417 4.43613 23.8511 4.26856 23.7972 4.11551C23.7432 3.96246 23.6301 3.83599 23.4819 3.76306C22.6407 3.30417 21.7113 3.01987 20.7521 2.928C20.5058 2.89668 20.2596 2.8967 19.9438 2.88104Z" fill="#898989"/>
<path d="M22.5666 10.0053C22.559 9.35716 22.2941 8.73708 21.8275 8.27541C21.3609 7.81373 20.7289 7.54637 20.0644 7.52948C19.3999 7.51259 18.7546 7.74753 18.2639 8.18487C17.7733 8.62221 17.4756 9.22794 17.4334 9.87481C17.4243 9.95945 17.4323 10.045 17.4571 10.1266C17.4819 10.2082 17.5229 10.2843 17.5778 10.3504C17.6328 10.4166 17.7005 10.4715 17.7772 10.5122C17.8539 10.5528 17.9381 10.5783 18.0249 10.5872C18.1117 10.5961 18.1995 10.5883 18.2831 10.5641C18.3668 10.5399 18.4448 10.4999 18.5127 10.4464C18.5805 10.3928 18.6369 10.3268 18.6786 10.252C18.7202 10.1772 18.7464 10.0952 18.7555 10.0105C18.8947 9.12847 19.5156 8.6483 20.2756 8.83619C20.5431 8.89915 20.7819 9.04617 20.955 9.25464C21.1282 9.46312 21.2262 9.72143 21.2338 9.98961C21.2358 10.2582 21.145 10.5196 20.9761 10.7317C20.8071 10.9438 20.5698 11.0942 20.3024 11.1587C20.19 11.19 20.0723 11.2005 19.9545 11.2213C19.8664 11.225 19.78 11.2465 19.7008 11.2843C19.6216 11.3222 19.5514 11.3757 19.4945 11.4415C19.4376 11.5072 19.3954 11.5837 19.3705 11.6662C19.3456 11.7487 19.3385 11.8354 19.3497 11.9207C19.3577 12.0063 19.3831 12.0895 19.4244 12.1655C19.4658 12.2414 19.5223 12.3086 19.5906 12.363C19.6588 12.4174 19.7375 12.458 19.8221 12.4824C19.9066 12.5069 19.9953 12.5146 20.083 12.5052C20.7467 12.4785 21.3746 12.2042 21.8368 11.7389C22.299 11.2737 22.5603 10.653 22.5666 10.0053Z" fill="#898989"/>
</g>
<defs>
<clipPath id="clip0">
<rect width="40" height="20" fill="white" transform="matrix(-1 0 0 1 40 0)"/>
</clipPath>
</defs>
</svg>
