<svg width="22" height="37" viewBox="0 0 22 37" fill="none" xmlns="http://www.w3.org/2000/svg">
<g clip-path="url(#clip0)">
<path d="M12.8226 37.0001C12.731 36.9558 12.6491 36.8927 12.5819 36.8145C12.5147 36.7364 12.4637 36.6448 12.432 36.5455C12.4003 36.4463 12.3887 36.3414 12.3977 36.2373C12.4066 36.1332 12.4361 36.032 12.4842 35.9401C12.6381 35.5227 12.7079 35.0771 12.6894 34.6308C12.6708 34.1845 12.5643 33.7469 12.3763 33.3447C12.1884 32.9424 11.9228 32.5841 11.5961 32.2916C11.2694 31.9991 10.8884 31.7785 10.4763 31.6435C9.66769 31.3504 8.82228 31.1796 7.96637 31.1361C6.03707 31.1257 4.15669 30.5081 2.57556 29.3656C1.76315 28.7954 1.10184 28.024 0.651984 27.1218C0.202128 26.2196 -0.0219335 25.2153 0.000179321 24.2007C0.0112021 23.2299 0.291455 22.2828 0.807708 21.4717C2.99971 17.9086 4.9856 14.2145 6.75508 10.4089C8.34833 7.18363 9.87615 3.92455 11.4367 0.676764C11.4919 0.552993 11.5539 0.432577 11.6222 0.315959C11.6534 0.247641 11.6978 0.186618 11.7526 0.136726C11.8075 0.0868347 11.8717 0.0491607 11.9413 0.0259106C12.0108 0.0026606 12.0842 -0.00567534 12.1569 0.00154494C12.2297 0.00876522 12.3002 0.0312575 12.3642 0.0677591C12.4923 0.127229 12.5932 0.235499 12.6461 0.369921C12.6989 0.504344 12.6996 0.654589 12.648 0.789507C12.6234 0.859176 12.5943 0.927062 12.5607 0.992554C9.62519 7.19493 6.71149 13.3972 3.41586 19.3966C3.00702 20.1722 2.559 20.9251 2.07362 21.652C1.70942 22.1443 1.44382 22.7067 1.2926 23.3063C1.14138 23.9059 1.10746 24.5307 1.19282 25.144C1.27819 25.7574 1.48112 26.3469 1.78974 26.8781C2.09837 27.4094 2.50656 27.8717 2.99025 28.2379C4.46685 29.4132 6.28859 30.0301 8.15193 29.9858C9.14134 30.0045 10.1186 30.215 11.0329 30.6061C12.0939 31.029 12.9533 31.8632 13.4282 32.931C13.9031 33.9989 13.9559 35.216 13.5755 36.3235C13.4457 36.5835 13.2804 36.8227 13.0845 37.034L12.8226 37.0001Z" fill="#898989"/>
<path d="M21.9999 26.253C22.0464 27.3252 21.8249 28.3917 21.3566 29.3497C20.8883 30.3077 20.1891 31.1248 19.3263 31.7224C19.2674 31.7788 19.1972 31.8213 19.1208 31.8471C19.0444 31.8729 18.9634 31.8813 18.8835 31.8716C18.8037 31.862 18.7269 31.8346 18.6583 31.7914C18.5897 31.7481 18.5308 31.6899 18.486 31.6209C18.4399 31.5529 18.4078 31.4757 18.3916 31.3943C18.3754 31.313 18.3755 31.2291 18.3919 31.1478C18.4082 31.0665 18.4405 30.9895 18.4867 30.9215C18.5329 30.8535 18.5922 30.796 18.6607 30.7526C18.997 30.4913 19.3143 30.2048 19.6101 29.8955C20.1936 29.2473 20.5969 28.4484 20.7774 27.583C20.958 26.7176 20.909 25.8178 20.6358 24.9787C20.2409 23.5118 19.5697 22.1398 18.6607 20.9415C18.5843 20.8287 18.4425 20.716 18.4425 20.6032C18.4425 20.4905 18.4424 20.0168 18.617 19.9041C18.7916 19.7913 19.0753 19.9041 19.3154 19.9041C19.3154 19.9041 19.3155 19.9041 19.381 19.9041C20.8709 21.6879 21.7861 23.907 21.9999 26.253Z" fill="#898989"/>
<path d="M11.2074 24.6177C13.3192 24.6549 15.3326 25.5456 16.8164 27.0988C17.1547 27.4371 17.1766 27.7754 16.9038 28.046C16.631 28.3167 16.3472 28.2716 16.0198 27.9445C14.9424 26.8327 13.5518 26.1024 12.0476 25.8583C10.7647 25.692 9.46502 25.978 8.3591 26.6702L8.02088 26.8731C7.95567 26.9117 7.8837 26.9366 7.8092 26.9464C7.7347 26.9562 7.65906 26.9507 7.58661 26.9303C7.51415 26.9099 7.4463 26.8748 7.38692 26.8273C7.32755 26.7798 7.27792 26.7207 7.24066 26.6533C7.2034 26.5859 7.17926 26.5116 7.16979 26.4346C7.16032 26.3576 7.16561 26.2794 7.18537 26.2045C7.20513 26.1297 7.23903 26.0595 7.28502 25.9982C7.331 25.9368 7.38819 25.8855 7.4534 25.847C8.29693 25.2791 9.24394 24.8954 10.2362 24.7193C10.5963 24.6629 10.9564 24.6403 11.2074 24.6177Z" fill="#898989"/>
</g>
<defs>
<clipPath id="clip0">
<rect width="22" height="37" fill="white"/>
</clipPath>
</defs>
</svg>
