<svg width="46" height="27" viewBox="0 0 46 27" fill="none" xmlns="http://www.w3.org/2000/svg">
<g clip-path="url(#clip0)">
<path d="M44.14 18.93C42.9075 17.9633 41.3864 17.4379 39.82 17.4379C38.2536 17.4379 36.7325 17.9633 35.5 18.93C33.4327 20.7205 30.9621 21.9833 28.3 22.61C26.4412 23.0103 24.53 23.1081 22.64 22.9C21.34 22.79 20.36 22.57 15.18 21.11L10.87 19.89C9.68415 19.5193 8.46507 19.2647 7.22997 19.1299" stroke="#898989" stroke-width="0.75" stroke-linecap="round" stroke-linejoin="round"/>
<path d="M29.79 22.23C30.66 22.38 33.99 23.02 35.08 25.81" stroke="#898989" stroke-width="0.75" stroke-linecap="round" stroke-linejoin="round"/>
<path d="M4.61999 15.03C2.87999 16.63 1.36999 17.8201 0.369987 18.5801C1.79533 18.1349 3.19715 17.6175 4.57 17.03C8.12 15.54 11.11 13.08 14.39 11.13C17.6706 9.21429 21.3914 8.18075 25.19 8.13C27.5457 8.11763 29.8948 8.37942 32.19 8.91003C34.37 9.36003 36.51 10.16 38.75 10.16" stroke="#898989" stroke-width="0.75" stroke-linecap="round" stroke-linejoin="round"/>
<path d="M34.15 20.1101C35.2685 19.932 36.4147 20.0807 37.4507 20.5384C38.4867 20.9961 39.3684 21.7432 39.99 22.69" stroke="#898989" stroke-width="0.75" stroke-linecap="round" stroke-linejoin="round"/>
<path d="M26.01 22.9999C26.5861 23.3074 27.0524 23.7863 27.3444 24.3703C27.6364 24.9543 27.7397 25.6146 27.64 26.2599" stroke="#898989" stroke-width="0.75" stroke-linecap="round" stroke-linejoin="round"/>
<path d="M2.42999 20.29C4.06518 20.4013 5.68596 20.6693 7.27001 21.09C9.10001 21.58 9.60003 21.93 13.16 23.18C15.38 23.96 16.51 24.3599 18.01 24.7499C19.8693 25.2384 21.7657 25.5729 23.68 25.7499" stroke="#898989" stroke-width="0.75" stroke-linecap="round" stroke-linejoin="round"/>
<path d="M35.76 18.78C37.033 17.6205 38.1191 16.2712 38.98 14.78C39.87 13.15 40.16 11.18 41.45 9.77997C42.4468 8.82071 43.7419 8.23148 45.12 8.11005" stroke="#898989" stroke-width="0.75" stroke-linecap="round" stroke-linejoin="round"/>
<path d="M30.56 10.2401C31.074 11.1273 31.3769 12.121 31.4452 13.1441C31.5134 14.1673 31.3452 15.1924 30.9535 16.1401C30.5619 17.0878 29.9573 17.9325 29.1867 18.6089C28.416 19.2854 27.5 19.7755 26.5096 20.041C25.5191 20.3065 24.4808 20.3404 23.4751 20.1401C22.4695 19.9398 21.5234 19.5107 20.7103 18.8859C19.8971 18.2612 19.2387 17.4576 18.7861 16.5375C18.3334 15.6174 18.0987 14.6054 18.1 13.58C18.1008 12.8631 18.2155 12.1509 18.44 11.47" stroke="#898989" stroke-width="0.75" stroke-linecap="round" stroke-linejoin="round"/>
<path d="M24.98 17.14C26.6203 17.14 27.95 15.8103 27.95 14.17C27.95 12.5297 26.6203 11.2 24.98 11.2C23.3397 11.2 22.01 12.5297 22.01 14.17C22.01 15.8103 23.3397 17.14 24.98 17.14Z" stroke="#898989" stroke-width="0.75" stroke-linecap="round" stroke-linejoin="round"/>
<path d="M25.01 13.18C25.2078 13.18 25.4011 13.2387 25.5655 13.3486C25.73 13.4585 25.8582 13.6146 25.9339 13.7973C26.0096 13.98 26.0294 14.1811 25.9908 14.3751C25.9522 14.569 25.8569 14.7473 25.7171 14.8871C25.5772 15.027 25.399 15.1222 25.2051 15.1608C25.0111 15.1994 24.81 15.1795 24.6273 15.1038C24.4446 15.0281 24.2884 14.9 24.1785 14.7355C24.0686 14.5711 24.01 14.3778 24.01 14.18" stroke="#898989" stroke-width="0.75" stroke-linecap="round" stroke-linejoin="round"/>
<path d="M10.23 13.83C9.29105 14.214 8.2389 14.214 7.29998 13.83C6.48069 13.4755 5.81427 12.8409 5.41998 12.04" stroke="#898989" stroke-width="0.75" stroke-linecap="round" stroke-linejoin="round"/>
<path d="M12.18 12.46C11.5618 12.5464 10.9325 12.5077 10.3296 12.3463C9.72663 12.1848 9.16226 11.9037 8.66998 11.52C7.83489 10.8395 7.26513 9.88754 7.05999 8.83002" stroke="#898989" stroke-width="0.75" stroke-linecap="round" stroke-linejoin="round"/>
<path d="M13.86 11.46C12.8491 11.1346 11.9445 10.5434 11.2407 9.74811C10.537 8.95286 10.06 7.98291 9.85998 6.94" stroke="#898989" stroke-width="0.75" stroke-linecap="round" stroke-linejoin="round"/>
<path d="M38.57 15.48C39.2573 14.651 40.1311 13.9964 41.12 13.57C42.2881 13.0816 43.5668 12.9192 44.82 13.1" stroke="#898989" stroke-width="0.75" stroke-linecap="round" stroke-linejoin="round"/>
<path d="M16.17 10.18C14.9635 9.81751 13.9207 9.04679 13.22 7.99994C12.6393 7.10866 12.3397 6.06351 12.36 4.99994" stroke="#898989" stroke-width="0.75" stroke-linecap="round" stroke-linejoin="round"/>
<path d="M18.32 9.31C17.3011 8.634 16.4935 7.68432 15.99 6.57001C15.4922 5.47508 15.3121 4.26235 15.47 3.07001" stroke="#898989" stroke-width="0.75" stroke-linecap="round" stroke-linejoin="round"/>
<path d="M20.62 8.52997C19.8605 7.8317 19.2485 6.98849 18.82 6.04999C18.1743 4.57955 17.9862 2.94877 18.28 1.36993" stroke="#898989" stroke-width="0.75" stroke-linecap="round" stroke-linejoin="round"/>
<path d="M23.57 8.17999C22.7597 7.07058 22.2339 5.77937 22.0386 4.41949C21.8434 3.05962 21.9846 1.67254 22.45 0.379944" stroke="#898989" stroke-width="0.75" stroke-linecap="round" stroke-linejoin="round"/>
<path d="M26.66 8.08002C26.66 8.08002 25.28 7.53997 25.07 5.27997" stroke="#898989" stroke-width="0.75" stroke-linecap="round" stroke-linejoin="round"/>
</g>
<defs>
<clipPath id="clip0">
<rect width="45.5" height="26.63" fill="white"/>
</clipPath>
</defs>
</svg>
