<svg width="24" height="33" viewBox="0 0 24 33" fill="none" xmlns="http://www.w3.org/2000/svg">
<g clip-path="url(#clip0)">
<rect width="23.78" height="32.68" fill="white"/>
<path d="M0.989996 20.83C0.442338 18.3261 0.263814 15.7556 0.460028 13.2C0.671729 11.8038 0.762025 10.3917 0.729987 8.97992C0.729987 8.29992 0.729987 7.42991 0.729987 6.09991C0.722234 5.31034 0.836956 4.52439 1.07001 3.76996C1.27991 2.94509 1.76276 2.21558 2.44001 1.70001C3.44001 1.02001 4.12002 1.31001 7.14002 0.570007L7.88001 0.379944" stroke="#898989" stroke-width="0.75" stroke-linecap="round" stroke-linejoin="round"/>
<path d="M11.89 23.0999C9.33601 23.1225 6.7893 22.8236 4.31 22.21V22.21" stroke="#898989" stroke-width="0.75" stroke-linecap="round" stroke-linejoin="round"/>
<path d="M3.81 24.3499C5.66892 25.1712 7.38406 26.2854 8.89001 27.65L11.89 30.65" stroke="#898989" stroke-width="0.75" stroke-linecap="round" stroke-linejoin="round"/>
<path d="M19.97 24.3499C18.1111 25.1712 16.396 26.2854 14.89 27.65L11.89 30.65V32.29" stroke="#898989" stroke-width="0.75" stroke-linecap="round" stroke-linejoin="round"/>
<path d="M4.76001 9.88995C4.76001 11.17 4.76003 13.17 4.66003 14.68" stroke="#898989" stroke-width="0.75" stroke-linecap="round" stroke-linejoin="round"/>
<path d="M5.78997 11.8599C6.09499 12.6548 6.29995 13.4846 6.40002 14.33C6.46029 15.4821 6.30424 16.6352 5.93999 17.7299C5.86999 17.9199 5.76003 18.18 5.41003 19.15C5.06003 20.12 4.79999 20.85 4.49999 21.69C4.49999 21.69 4.41999 21.87 4.30999 22.21C4.19999 22.55 4.05003 23.0199 3.91003 23.6099C3.20873 26.5017 3.41469 29.5394 4.49999 32.31" stroke="#898989" stroke-width="0.75" stroke-linecap="round" stroke-linejoin="round"/>
<path d="M17.93 11.91C17.6488 12.6912 17.4641 13.504 17.38 14.33C17.3257 15.4826 17.4851 16.6352 17.85 17.7299C17.91 17.9199 18.02 18.18 18.37 19.15C18.72 20.12 18.99 20.85 19.28 21.69C19.28 21.69 19.36 21.87 19.47 22.21C19.6288 22.669 19.7623 23.1363 19.87 23.6099C20.5713 26.5017 20.3653 29.5394 19.28 32.31" stroke="#898989" stroke-width="0.75" stroke-linecap="round" stroke-linejoin="round"/>
<path d="M22.79 20.83C23.3427 18.3268 23.5213 15.7556 23.32 13.2C23.1083 11.8038 23.0179 10.3917 23.05 8.97992C23.05 8.29992 23.05 7.42991 23.05 6.09991C23.0577 5.31034 22.9431 4.52439 22.71 3.76996C22.5038 2.94345 22.0202 2.2128 21.34 1.70001C20.34 1.02001 19.66 1.31001 16.64 0.570007L15.9 0.379944" stroke="#898989" stroke-width="0.75" stroke-linecap="round" stroke-linejoin="round"/>
<path d="M11.89 23.0999C14.444 23.1225 16.9907 22.8236 19.47 22.21" stroke="#898989" stroke-width="0.75" stroke-linecap="round" stroke-linejoin="round"/>
<path d="M19.07 9.88995C19.07 11.17 19.07 13.17 19.17 14.68" stroke="#898989" stroke-width="0.75" stroke-linecap="round" stroke-linejoin="round"/>
<path d="M11.89 6.87989C10.4766 6.0206 8.82948 5.62545 7.18 5.74989C6.47665 5.81374 5.78621 5.97877 5.13001 6.23988C4.65653 7.39522 4.52802 8.66304 4.76002 9.8899C4.851 10.3022 4.99203 10.7019 5.18 11.08C5.3435 11.4087 5.57825 11.6969 5.86713 11.9235C6.15602 12.1501 6.49182 12.3094 6.85004 12.3899H7.06001C7.71592 12.5385 8.38765 12.6058 9.06001 12.59C9.80582 12.558 10.5402 12.3954 11.23 12.1099C11.4555 12.0044 11.6944 11.9304 11.94 11.8899C12.186 11.9289 12.4251 12.0029 12.65 12.1099C13.34 12.3946 14.0743 12.5571 14.82 12.59C15.4757 12.6017 16.1304 12.5345 16.77 12.3899H16.98C17.3382 12.3094 17.674 12.1501 17.9629 11.9235C18.2518 11.6969 18.4865 11.4087 18.65 11.08C18.838 10.7019 18.979 10.3022 19.07 9.8899C19.3073 8.66328 19.1786 7.39393 18.7 6.23988C18.0438 5.97877 17.3534 5.81374 16.65 5.74989C14.984 5.61616 13.3182 6.01161 11.89 6.87989V6.87989Z" stroke="#898989" stroke-width="0.75" stroke-linecap="round" stroke-linejoin="round"/>
</g>
<defs>
<clipPath id="clip0">
<rect width="23.78" height="32.68" fill="white"/>
</clipPath>
</defs>
</svg>
