<svg width="41" height="34" viewBox="0 0 41 34" fill="none" xmlns="http://www.w3.org/2000/svg">
<g clip-path="url(#clip0)">
<path d="M30.71 22.35C29.9613 21.7782 29.0517 21.4563 28.11 21.43C27.0806 21.4328 26.0827 21.7855 25.28 22.43C23.9873 23.5615 22.4344 24.3551 20.76 24.7399C19.5916 24.9964 18.3891 25.0607 17.2 24.93C15.6089 24.7016 14.0421 24.3267 12.52 23.81L9.81001 23.04C9.06323 22.8092 8.29655 22.6486 7.51997 22.56" stroke="#898989" stroke-width="0.75" stroke-linecap="round" stroke-linejoin="round"/>
<path d="M21.7 24.43C22.25 24.52 24.34 24.92 25.02 26.68" stroke="#898989" stroke-width="0.75" stroke-linecap="round" stroke-linejoin="round"/>
<path d="M3.20998 22.17C6.68998 19.88 8.82001 16.02 12.43 13.91C14.837 12.5288 17.6229 11.9541 20.38 12.27C23.22 12.58 25.73 13.7501 28.38 14.7101C28.91 14.9001 29.38 15.0601 29.89 15.2001" stroke="#898989" stroke-width="0.75" stroke-linecap="round" stroke-linejoin="round"/>
<path d="M24.44 23.1001C25.1428 22.9874 25.8633 23.0803 26.5144 23.3678C27.1656 23.6552 27.7197 24.1248 28.11 24.7201" stroke="#898989" stroke-width="0.75" stroke-linecap="round" stroke-linejoin="round"/>
<path d="M19.33 24.91C19.6769 25.1058 19.9575 25.4008 20.1356 25.7571C20.3138 26.1135 20.3814 26.5149 20.33 26.91" stroke="#898989" stroke-width="0.75" stroke-linecap="round" stroke-linejoin="round"/>
<path d="M4.28999 23.83C5.32068 23.9017 6.34205 24.0725 7.33998 24.34C8.47998 24.64 8.79999 24.86 11.04 25.65C12.43 26.14 13.14 26.39 14.04 26.65C15.2077 26.9515 16.3985 27.1555 17.6 27.2599" stroke="#898989" stroke-width="0.75" stroke-linecap="round" stroke-linejoin="round"/>
<path d="M25.26 22.44C25.53 22.19 25.94 21.8199 26.45 21.3799C27.7166 20.2541 29.0709 19.2309 30.5 18.32" stroke="#898989" stroke-width="0.75" stroke-linecap="round" stroke-linejoin="round"/>
<path d="M31.47 7.16997C26.88 5.79997 19.17 2.52999 12.52 3.68999C9.35891 4.31114 6.44312 5.82806 4.12003 8.05998C2.77003 9.30998 -1.14996 12.7899 1.01004 14.7399C2.65004 16.2299 4.55004 14.04 5.51004 12.81C7.03004 10.87 8.28004 8.80991 10.45 7.48991C12.5834 6.2169 15.0369 5.58188 17.52 5.65996" stroke="#898989" stroke-width="0.75" stroke-linecap="round" stroke-linejoin="round"/>
<path d="M35.47 8.87L35.53 0.380005" stroke="#898989" stroke-width="0.75" stroke-linecap="round" stroke-linejoin="round"/>
<path d="M37.64 31.41H32.46C32.3645 31.41 32.273 31.4479 32.2055 31.5154C32.1379 31.583 32.1 31.6745 32.1 31.77V32.77C32.1 32.8654 32.1379 32.9571 32.2055 33.0246C32.273 33.0921 32.3645 33.1299 32.46 33.1299H38.31C38.4054 33.1299 38.4971 33.0921 38.5646 33.0246C38.6321 32.9571 38.6701 32.8654 38.6701 32.77V31.72C38.6714 31.6719 38.663 31.624 38.6455 31.5792C38.628 31.5343 38.6017 31.4934 38.5681 31.4589C38.5346 31.4244 38.4944 31.3971 38.4501 31.3784C38.4057 31.3596 38.3581 31.35 38.31 31.35H37.65" stroke="#898989" stroke-width="0.75" stroke-linecap="round" stroke-linejoin="round"/>
<path d="M32.7 24.59L32.75 10.92L35.53 8.88L38.24 10.93L38.17 23.43" stroke="#898989" stroke-width="0.75" stroke-linecap="round" stroke-linejoin="round"/>
<path d="M34.36 27.36L34.33 31.41" stroke="#898989" stroke-width="0.75" stroke-linecap="round" stroke-linejoin="round"/>
<path d="M36.35 27.37L36.33 31.41" stroke="#898989" stroke-width="0.75" stroke-linecap="round" stroke-linejoin="round"/>
<path d="M39.16 24.59H39.44C39.75 24.59 39.99 25.1099 39.99 25.7599V26.2C39.99 26.84 39.7299 27.3599 39.4299 27.3599H33.94H31.35C30.98 27.3599 30.7 26.76 30.7 26.02C30.7 25.28 31 24.68 31.36 24.68H39.1799" stroke="#898989" stroke-width="0.75" stroke-linecap="round" stroke-linejoin="round"/>
<path d="M32.75 10.92L37.32 10.93" stroke="#898989" stroke-width="0.75" stroke-linecap="round" stroke-linejoin="round"/>
<path d="M37.32 10.93H38.24" stroke="#898989" stroke-width="0.75" stroke-linecap="round" stroke-linejoin="round"/>
</g>
<defs>
<clipPath id="clip0">
<rect width="40.37" height="33.57" fill="white"/>
</clipPath>
</defs>
</svg>
